<svg width="24" height="24" viewBox="0 0 24 24" fill="none" xmlns="http://www.w3.org/2000/svg">
<path d="M12 21.5C9.78333 21.5 7.896 20.7293 6.338 19.188C4.77933 17.646 4 15.7833 4 13.6C4 12.5 4.20433 11.479 4.613 10.537C5.021 9.59567 5.6 8.76667 6.35 8.05L12 2.5L17.65 8.05C18.4 8.76667 18.9793 9.59567 19.388 10.537C19.796 11.479 20 12.5 20 13.6C20 15.7833 19.221 17.646 17.663 19.188C16.1043 20.7293 14.2167 21.5 12 21.5ZM12 19.5C13.6667 19.5 15.0833 18.9207 16.25 17.762C17.4167 16.604 18 15.2167 18 13.6C18 12.8 17.854 12.054 17.562 11.362C17.2707 10.6707 16.8333 10.05 16.25 9.5L12 5.3L7.75 9.5C7.16667 10.05 6.72933 10.6707 6.438 11.362C6.146 12.054 6 12.8 6 13.6C6 15.2167 6.58333 16.604 7.75 17.762C8.91667 18.9207 10.3333 19.5 12 19.5Z" fill="black"/>
</svg>
