<svg width="256" height="256" viewBox="0 0 256 256" fill="none" xmlns="http://www.w3.org/2000/svg">
<path d="M24 104C21.8783 104 19.8434 103.157 18.3431 101.657C16.8429 100.157 16 98.1217 16 96C16 93.8783 16.8429 91.8434 18.3431 90.3431C19.8434 88.8429 21.8783 88 24 88H120C122.921 87.9978 125.785 87.1962 128.283 85.682C130.78 84.1678 132.816 81.9988 134.169 79.4102C135.521 76.8215 136.14 73.912 135.957 70.997C135.773 68.082 134.796 65.2727 133.13 62.8737C131.464 60.4746 129.173 58.5774 126.506 57.3876C123.838 56.1979 120.896 55.761 117.998 56.1243C115.1 56.4876 112.356 57.6372 110.065 59.4486C107.774 61.26 106.022 63.664 105 66.4C104.682 67.4394 104.155 68.4029 103.451 69.2318C102.748 70.0608 101.883 70.7377 100.91 71.2213C99.9363 71.7049 98.8745 71.985 97.7891 72.0445C96.7036 72.1041 95.6175 71.9418 94.5969 71.5676C93.5763 71.1933 92.6427 70.615 91.853 69.868C91.0634 69.1209 90.4342 68.2208 90.004 67.2225C89.5739 66.2242 89.3516 65.1487 89.3509 64.0617C89.3502 62.9746 89.5711 61.8988 90 60.9C92.0284 55.4154 95.5209 50.5916 100.098 46.9523C104.675 43.313 110.162 40.9976 115.963 40.2574C121.763 39.5172 127.656 40.3806 133 42.7538C138.345 45.1271 142.936 48.9194 146.277 53.7188C149.618 58.5182 151.58 64.1413 151.949 69.9772C152.319 75.8132 151.082 81.6388 148.374 86.8214C145.665 92.004 141.589 96.3453 136.586 99.3739C131.584 102.402 125.848 104.002 120 104H24ZM152 152H40C37.8783 152 35.8434 152.843 34.3431 154.343C32.8429 155.843 32 157.878 32 160C32 162.122 32.8429 164.157 34.3431 165.657C35.8434 167.157 37.8783 168 40 168H152C154.921 168.002 157.785 168.804 160.283 170.318C162.78 171.832 164.816 174.001 166.169 176.59C167.521 179.178 168.14 182.088 167.957 185.003C167.773 187.918 166.796 190.727 165.13 193.126C163.464 195.525 161.173 197.423 158.506 198.612C155.838 199.802 152.896 200.239 149.998 199.876C147.1 199.512 144.356 198.363 142.065 196.551C139.774 194.74 138.022 192.336 137 189.6C136.682 188.561 136.155 187.597 135.451 186.768C134.748 185.939 133.883 185.262 132.91 184.779C131.936 184.295 130.874 184.015 129.789 183.955C128.704 183.896 127.617 184.058 126.597 184.432C125.576 184.807 124.643 185.385 123.853 186.132C123.063 186.879 122.434 187.779 122.004 188.778C121.574 189.776 121.352 190.851 121.351 191.938C121.35 193.025 121.571 194.101 122 195.1C124.028 200.585 127.521 205.408 132.098 209.048C136.675 212.687 142.162 215.002 147.963 215.743C153.763 216.483 159.656 215.619 165 213.246C170.345 210.873 174.936 207.081 178.277 202.281C181.618 197.482 183.58 191.859 183.949 186.023C184.319 180.187 183.082 174.361 180.374 169.179C177.665 163.996 173.589 159.655 168.586 156.626C163.584 153.598 157.848 151.998 152 152ZM208 72C201.467 72.0168 195.094 74.0268 189.734 77.7614C184.373 81.4959 180.279 86.7773 178 92.9C177.571 93.8988 177.35 94.9746 177.351 96.0617C177.352 97.1487 177.574 98.2242 178.004 99.2225C178.434 100.221 179.063 101.121 179.853 101.868C180.643 102.615 181.576 103.193 182.597 103.568C183.617 103.942 184.704 104.104 185.789 104.045C186.874 103.985 187.936 103.705 188.91 103.221C189.883 102.738 190.748 102.061 191.451 101.232C192.155 100.403 192.682 99.4394 193 98.4C194.022 95.664 195.774 93.26 198.065 91.4486C200.356 89.6372 203.1 88.4876 205.998 88.1243C208.896 87.761 211.838 88.1979 214.506 89.3876C217.173 90.5774 219.464 92.4746 221.13 94.8737C222.796 97.2727 223.773 100.082 223.957 102.997C224.14 105.912 223.521 108.822 222.169 111.41C220.816 113.999 218.78 116.168 216.283 117.682C213.785 119.196 210.921 119.998 208 120H32C29.8783 120 27.8434 120.843 26.3431 122.343C24.8429 123.843 24 125.878 24 128C24 130.122 24.8429 132.157 26.3431 133.657C27.8434 135.157 29.8783 136 32 136H208C216.487 136 224.626 132.629 230.627 126.627C236.629 120.626 240 112.487 240 104C240 95.5131 236.629 87.3737 230.627 81.3726C224.626 75.3714 216.487 72 208 72Z" fill="black"/>
</svg>
