<svg width="26" height="26" viewBox="0 0 26 26" fill="none" xmlns="http://www.w3.org/2000/svg">
<g clip-path="url(#clip0_645_6)">
<path d="M15.5 0C13.21 0 11.312 1.293 10.156 3.094C9.94 3.064 9.735 3 9.5 3C6.998 3 5 4.735 4.344 7.031C1.946 7.12 0 9.081 0 11.5C0 13.973 2.027 16 4.5 16H20.5C23.526 16 26 13.526 26 10.5C26 7.925 24.178 5.838 21.781 5.25C21.183 2.279 18.64 0 15.5 0ZM15.5 2C16.6279 1.99689 17.7153 2.4203 18.5442 3.18533C19.373 3.95035 19.8819 5.00044 19.969 6.125L20.062 6.969L20.875 7.031C21.7333 7.11879 22.5284 7.52238 23.1059 8.16342C23.6833 8.80446 24.002 9.63721 24 10.5C24 12.444 22.444 14 20.5 14H4.5C4.17114 14.002 3.84515 13.9387 3.54094 13.8138C3.23673 13.6888 2.96034 13.5048 2.72779 13.2722C2.49525 13.0397 2.31118 12.7633 2.18625 12.4591C2.06131 12.1548 1.99801 11.8289 2 11.5C1.99785 11.1394 2.0742 10.7827 2.22373 10.4546C2.37327 10.1265 2.59241 9.83489 2.86596 9.59997C3.1395 9.36506 3.46089 9.19249 3.80782 9.09423C4.15475 8.99598 4.5189 8.97441 4.875 9.031L5.938 9.219L6.031 8.156C6.11177 7.2922 6.51229 6.48971 7.15402 5.90588C7.79576 5.32205 8.63243 4.99897 9.5 5C9.76 5 10.03 5.027 10.313 5.094L11.093 5.281L11.438 4.563C11.8031 3.79517 12.3786 3.14672 13.0977 2.69302C13.8167 2.23932 14.6498 1.999 15.5 2ZM20.969 16.844C20.019 17.336 17.845 18.13 17.281 19.031C17.1449 19.2443 17.0522 19.4823 17.0084 19.7315C16.9646 19.9807 16.9704 20.2361 17.0256 20.483C17.0808 20.7299 17.1843 20.9635 17.33 21.1703C17.4758 21.3771 17.661 21.553 17.875 21.688C18.774 22.253 19.896 21.915 20.531 21.063C21.096 20.305 20.968 18.884 20.969 16.844ZM6.969 17.844C6.019 18.336 3.845 19.13 3.281 20.031C3.14486 20.2443 3.05222 20.4823 3.00839 20.7315C2.96457 20.9807 2.97042 21.2361 3.02562 21.483C3.08082 21.7299 3.18428 21.9635 3.33004 22.1703C3.47581 22.3771 3.66101 22.553 3.875 22.688C4.774 23.253 5.896 22.915 6.531 22.063C7.096 21.305 6.968 19.884 6.969 17.844ZM13.969 20.844C13.019 21.336 10.845 22.13 10.281 23.031C10.1449 23.2443 10.0522 23.4823 10.0084 23.7315C9.96457 23.9807 9.97042 24.2361 10.0256 24.483C10.0808 24.7299 10.1843 24.9635 10.33 25.1703C10.4758 25.3771 10.661 25.553 10.875 25.688C11.774 26.253 12.896 25.915 13.531 25.063C14.096 24.305 13.968 22.884 13.969 20.844Z" fill="black"/>
</g>
<defs>
<clipPath id="clip0_645_6">
<rect width="26" height="26" fill="white"/>
</clipPath>
</defs>
</svg>
